<?xml version="1.0" encoding="utf-8"?>
<!-- Generator: Adobe Illustrator 28.0.0, SVG Export Plug-In . SVG Version: 6.00 Build 0)  -->
<svg version="1.1" id="Layer_1" xmlns="http://www.w3.org/2000/svg" xmlns:xlink="http://www.w3.org/1999/xlink" x="0px" y="0px"
	 viewBox="0 0 1440 320" style="enable-background:new 0 0 1440 320;" xml:space="preserve">
<image style="overflow:visible;" width="2160" height="735" xlink:href="C:\Users\hoda\Downloads\svg (1).png"  transform="matrix(0.4354 0 0 0.4354 0 0)">
</image>
<polygon points="-118.3,431.3 -82.6,441.4 -38,450.8 -12.4,455 17.8,457.7 54.9,457.7 78.1,455.2 116,447.7 147.7,439.4 
	197.6,425.7 230.4,417.6 248.1,413.7 259.7,411.9 275.8,409.7 289.6,408.3 304.9,407.4 327.8,407.4 338.9,408.2 357,410.3 
	378,414.3 395.6,418.8 434.7,429.5 456.7,436.2 483.5,444.5 509,452 523.7,456 545.2,461.2 568.2,465.9 577,466.9 591.5,468.3 
	615.3,469.3 637.9,469.3 657,468 678.9,465.1 697.2,462.5 720.3,457.9 730,455.9 739.4,453.4 753.3,450.2 769.1,446 780.8,443.2 
	786.8,441.4 799.1,437.9 806.9,435.9 813.4,433.9 819.7,432.5 821.3,431.7 822.1,431.7 822.1,534.4 -118.3,534.4 "/>
</svg>
