<?xml version="1.0" encoding="UTF-8"?>
<svg id="Layer_2" data-name="Layer 2" xmlns="http://www.w3.org/2000/svg" xmlns:xlink="http://www.w3.org/1999/xlink" viewBox="0 0 1368.12 771.49">
  <defs>
    <style>
      .cls-1 {
        fill: url(#linear-gradient);
        stroke-width: 0px;
      }
    </style>
    <linearGradient id="linear-gradient" x1="939.19" y1="230.7" x2="150.53" y2="719.87" gradientUnits="userSpaceOnUse">
      <stop offset="0" stop-color="#9fc2ff"/>
      <stop offset="1" stop-color="#00ffe5"/>
    </linearGradient>
  </defs>
  <g id="Layer_1-2" data-name="Layer 1">
    <path class="cls-1" d="m1031.72,156.99c-39.03,7.37-78.08,15.38-117.57,14.27-87.47-2.47-172.03-53.35-215.18-129.48-7.22-12.74-14.05-26.85-26.8-34.05-10.44-5.89-23.03-6.05-35.02-6.06-190.83-.12-381.67-.23-572.5-.35-15.43,0-40.72-5.04-54.31,4.61S.31,34.8.3,48.63c-.03,47.66-.02,95.31.05,142.97.14,95.31.51,190.62,1.08,285.93.06,10.48,6.36,103.54.73,105.79,100.54-60.17,237.79-51.54,330.01,20.75,28.42,22.28,55.39,51.1,91.25,55.39,24.19,2.9,47.97-6.16,71.25-13.31,93.98-28.89,194.69-28.31,292.33-16.74,81.75,9.69,166.02,28.44,230.09,80.14,24.72,19.94,46.79,44.95,76.78,55.41,20.22,7.05,42.16,6.75,63.58,6.37,69.14-1.24,138.28-2.48,207.43-3.72,1.06-140.25,2.12-280.51,3.18-420.76.23-29.93.1-61.36-14.28-87.62-10.8-19.74-28.66-34.57-46.94-47.69-48.2-34.6-103.91-61.21-163.09-65.36-37.59-2.64-74.81,3.8-112.04,10.83Z"/>
  </g>
</svg>