<?xml version="1.0" encoding="UTF-8"?>
<svg id="Layer_2" data-name="Layer 2" xmlns="http://www.w3.org/2000/svg" xmlns:xlink="http://www.w3.org/1999/xlink" viewBox="0 0 1363 764.9">
  <defs>
    <style>
      .cls-1 {
        fill: url(#linear-gradient);
        stroke-width: 0px;
      }
    </style>
    <linearGradient id="linear-gradient" x1="1010.16" y1="202.48" x2="36.11" y2="735.86" gradientUnits="userSpaceOnUse">
      <stop offset="0" stop-color="#2aa9ff"/>
      <stop offset="1" stop-color="#3fffec"/>
    </linearGradient>
  </defs>
  <g id="Layer_1-2" data-name="Layer 1">
    <path class="cls-1" d="m3.16,754.8c36.62-14.23,78.76-22.67,122.24-25.13,54.42-3.08,104.7,8.81,157.12,17.3,6.26,1.01,12.67,2.04,19.15,1.76,8.08-.35,15.48-2.67,22.78-4.75,60.24-17.13,131.84-19.57,194.98-6.66,11.21,2.29,22.43,5.08,34.28,5.26,13.75.21,26.85-3.11,39.88-5.75,57.16-11.56,121.38-10.28,177.11,3.54,11.51,2.86,23.26,6.29,35.72,5.93,9.8-.29,18.91-2.91,27.94-5.19,62.68-15.78,135.97-15.98,198.89-.53,10.01,2.46,20.08,5.34,30.91,5.57,13.18.28,25.55-3.37,37.74-6.36,30.8-7.55,62.94-10.93,94.78-10.73,60.33.39,119.54,13.65,166.34,35.84l-5.45-482.4-81.32-74.2s-96.6-64.05-266.92-17.8C842.15,235.89,681.52,0,681.52,0H0v756.05c1.05-.42,2.1-.84,3.16-1.25Z"/>
  </g>
</svg>