<?xml version="1.0" encoding="UTF-8"?>
<svg id="Layer_2" data-name="Layer 2" xmlns="http://www.w3.org/2000/svg" viewBox="0 0 1366 688.6">
  <defs>
    <style>
      .cls-1 {
        fill: #7bb4cb;
        stroke-width: 0px;
      }
    </style>
  </defs>
  <g id="Layer_1-2" data-name="Layer 1">
    <path class="cls-1" d="m924,.32c-37.99,1.28-76,11.85-152,33-115.39,32.11-128.71,47.12-181,52-41.11,3.84-101.04.92-177-33-68.21,22.53-119.68,19.7-154,13-68.8-13.42-103.71-49.2-175-47C48.24,19.46,18.64,30.17,0,38.61v619.48c.44-.42,1.14-1.08,2-1.88,0,0,59.14-55.47,121-87.88,58.92-30.87,205.32-67.04,327.67-5.72,60.37,30.25,84.13,68.83,156.33,77.72,40.18,4.95,61.39-3.48,99-9,182.6-26.82,242.83,89.47,384,48,33.48-9.83,69.7-28.01,132-33,0,0,58.56-4.69,100,14,22.07,9.96,40,24.85,40,24.85,1.73,1.44,3.11,2.65,4,3.43V50.09c-32.53,27.06-81.77,58.61-136.08,51.13-42.9-5.9-50.66-30.88-110.92-60.9C1033.23-2.42,951.1-.59,924,.32Z"/>
  </g>
</svg>